<?xml version="1.0" encoding="utf-8"?>
<!-- Generator: Adobe Illustrator 26.3.1, SVG Export Plug-In . SVG Version: 6.00 Build 0)  -->
<svg version="1.1" id="GitHub_white" xmlns="http://www.w3.org/2000/svg" xmlns:xlink="http://www.w3.org/1999/xlink" x="0px"
	 y="0px" viewBox="0 0 81 81" enable-background="new 0 0 81 81" xml:space="preserve">
<path fill="#FFFFFF" d="M28.582,61.927c0,0.289-0.334,0.521-0.754,0.521c-0.479,0.041-0.812-0.189-0.812-0.521
	c0-0.293,0.334-0.527,0.754-0.527C28.207,61.36,28.582,61.593,28.582,61.927z M24.068,61.273c-0.104,0.291,0.188,0.623,0.623,0.707
	c0.379,0.144,0.813,0,0.899-0.289c0.087-0.293-0.188-0.625-0.623-0.756C24.589,60.837,24.167,60.983,24.068,61.273L24.068,61.273z
	 M30.484,61.026c-0.422,0.102-0.711,0.375-0.668,0.707c0.043,0.293,0.42,0.479,0.854,0.377c0.42-0.104,0.712-0.377,0.667-0.668
	C31.296,61.171,30.904,60.983,30.484,61.026z M40.035,5.401C19.902,5.401,4.5,20.686,4.5,40.819
	c0,16.098,10.133,29.876,24.604,34.721c1.856,0.334,2.515-0.812,2.515-1.756c0-0.9-0.045-5.867-0.045-8.914
	c0,0-10.163,2.178-12.296-4.324c0,0-1.652-4.225-4.035-5.312c0,0-3.324-2.281,0.23-2.238c0,0,3.614,0.291,5.604,3.746
	c3.18,5.605,8.506,3.992,10.585,3.037c0.334-2.322,1.276-3.934,2.321-4.893C25.867,53.987,17.68,52.81,17.68,38.848
	c0-3.993,1.104-5.997,3.426-8.553c-0.377-0.944-1.611-4.834,0.379-9.855c3.033-0.945,10.016,3.918,10.016,3.918
	c2.904-0.812,6.023-1.234,9.115-1.234c3.092,0,6.213,0.422,9.119,1.234c0,0,6.982-4.875,10.016-3.918
	c1.988,5.037,0.756,8.91,0.375,9.855c2.322,2.57,3.744,4.572,3.744,8.551c0,14.008-8.547,15.124-16.664,16.038
	c1.334,1.146,2.467,3.324,2.467,6.736c0,4.891-0.041,10.943-0.041,12.133c0,0.945,0.668,2.092,2.513,1.758
	C66.66,70.694,76.5,56.913,76.5,40.815C76.5,20.687,60.17,5.401,40.035,5.401z M18.609,55.466c-0.188,0.145-0.146,0.479,0.102,0.754
	c0.234,0.232,0.566,0.334,0.754,0.145c0.19-0.145,0.149-0.479-0.101-0.754C19.132,55.378,18.796,55.278,18.609,55.466z
	 M17.042,54.292c-0.102,0.188,0.043,0.42,0.332,0.566c0.234,0.145,0.523,0.102,0.625-0.104c0.103-0.188-0.043-0.422-0.334-0.564
	C17.374,54.101,17.144,54.146,17.042,54.292z M21.746,59.458c-0.231,0.19-0.145,0.623,0.189,0.9
	c0.334,0.334,0.754,0.375,0.944,0.145c0.189-0.191,0.102-0.625-0.188-0.898C22.371,59.271,21.934,59.226,21.746,59.458z
	 M20.089,57.325c-0.229,0.145-0.229,0.525,0,0.859c0.232,0.334,0.625,0.475,0.814,0.334c0.232-0.193,0.232-0.566,0-0.9
	C20.699,57.28,20.322,57.136,20.089,57.325L20.089,57.325z"/>
</svg>
