<?xml version="1.0" encoding="utf-8"?>
<!-- Generator: Adobe Illustrator 26.3.1, SVG Export Plug-In . SVG Version: 6.00 Build 0)  -->
<svg version="1.1" id="Icons" xmlns="http://www.w3.org/2000/svg" xmlns:xlink="http://www.w3.org/1999/xlink" x="0px" y="0px"
	 width="80px" height="80px" viewBox="-264.5 437.5 80 80" enable-background="new -264.5 437.5 80 80" xml:space="preserve">
<path id="LinkedIn" fill="#FFFFFF" d="M-190.216,437.5h-68.585c-3.142,0-5.699,2.591-5.699,5.768v68.464
	c0,3.177,2.556,5.768,5.699,5.768h68.585c3.147,0,5.716-2.591,5.716-5.768v-68.464C-184.5,440.091-187.069,437.5-190.216,437.5z
	 M-240.324,506.072h-11.858v-38.177h11.876v38.177H-240.324L-240.324,506.072z M-246.252,462.678c-3.802,0-6.876-3.085-6.876-6.876
	c0-3.784,3.074-6.876,6.876-6.876c3.788,0,6.876,3.09,6.876,6.876C-239.378,459.609-242.446,462.678-246.252,462.678z
	 M-195.876,506.072h-11.858V487.5c0-4.427-0.095-10.122-6.167-10.122c-6.181,0-7.127,4.813-7.127,9.8v18.893h-11.853v-38.177h11.372
	v5.217h0.161c1.589-3.003,5.464-6.163,11.233-6.163c11.997,0,14.232,7.912,14.232,18.195L-195.876,506.072L-195.876,506.072z"/>
</svg>
