<?xml version="1.0" encoding="utf-8"?>
<!-- Generator: Adobe Illustrator 26.3.1, SVG Export Plug-In . SVG Version: 6.00 Build 0)  -->
<svg version="1.1" id="Resume_white" xmlns="http://www.w3.org/2000/svg" xmlns:xlink="http://www.w3.org/1999/xlink" x="0px"
	 y="0px" viewBox="0 0 81 81" enable-background="new 0 0 81 81" xml:space="preserve">
<path fill="#FFFFFF" d="M71.355,4.501H9.629c-2.828,0-5.129,2.331-5.129,5.191v61.617c0,2.859,2.301,5.191,5.129,5.191h61.727
	c2.832,0,5.145-2.332,5.145-5.191V9.691C76.5,6.832,74.187,4.501,71.355,4.501z M61.25,63.069h-31.5c-1.657,0-3-1.343-3-3
	c0-1.657,1.343-3,3-3h31.5c1.657,0,3,1.343,3,3C64.25,61.727,62.907,63.069,61.25,63.069z M61.25,49.569h-31.5c-1.657,0-3-1.343-3-3
	c0-1.657,1.343-3,3-3h31.5c1.657,0,3,1.343,3,3C64.25,48.227,62.907,49.569,61.25,49.569z M61.25,36.069h-31.5c-1.657,0-3-1.343-3-3
	c0-1.657,1.343-3,3-3h31.5c1.657,0,3,1.343,3,3C64.25,34.726,62.907,36.069,61.25,36.069z M65.7,20.22H15.3c-1.657,0-3-1.343-3-3
	c0-1.657,1.343-3,3-3h50.4c1.657,0,3,1.343,3,3C68.7,18.877,67.357,20.22,65.7,20.22z M20.999,33.017
	c0,1.656-1.343,2.999-2.999,2.999s-2.999-1.343-2.999-2.999c0-1.656,1.343-2.999,2.999-2.999S20.999,31.361,20.999,33.017z
	 M20.999,46.569c0,1.656-1.343,2.999-2.999,2.999s-2.999-1.343-2.999-2.999s1.343-2.999,2.999-2.999S20.999,44.913,20.999,46.569z
	 M20.999,60.069c0,1.656-1.343,2.999-2.999,2.999s-2.999-1.343-2.999-2.999s1.343-2.999,2.999-2.999S20.999,58.413,20.999,60.069z"
	/>
</svg>
