<?xml version="1.0" encoding="utf-8"?>
<!-- Generator: Adobe Illustrator 26.3.1, SVG Export Plug-In . SVG Version: 6.00 Build 0)  -->
<svg version="1.1" id="Icons" xmlns="http://www.w3.org/2000/svg" xmlns:xlink="http://www.w3.org/1999/xlink" x="0px" y="0px"
	 width="80px" height="80px" viewBox="-264.5 437.5 80 80" enable-background="new -264.5 437.5 80 80" xml:space="preserve">
<path id="Resume" fill="#FFFFFF" d="M-190.216,437.5h-68.585c-3.142,0-5.699,2.591-5.699,5.768v68.464
	c0,3.177,2.557,5.768,5.699,5.768h68.585c3.147,0,5.716-2.591,5.716-5.768v-68.464C-184.5,440.091-187.069,437.5-190.216,437.5z
	 M-201.444,502.577h-35c-1.841,0-3.333-1.492-3.333-3.333c0-1.841,1.493-3.333,3.333-3.333h35c1.841,0,3.333,1.492,3.333,3.333
	C-198.111,501.085-199.603,502.577-201.444,502.577z M-201.444,487.577h-35c-1.841,0-3.333-1.492-3.333-3.333
	c0-1.841,1.493-3.333,3.333-3.333h35c1.841,0,3.333,1.492,3.333,3.333C-198.111,486.085-199.603,487.577-201.444,487.577z
	 M-201.444,472.577h-35c-1.841,0-3.333-1.492-3.333-3.333c0-1.841,1.493-3.333,3.333-3.333h35c1.841,0,3.333,1.493,3.333,3.333
	C-198.111,471.084-199.603,472.577-201.444,472.577z M-196.5,454.966h-56c-1.841,0-3.333-1.492-3.333-3.333
	c0-1.841,1.493-3.333,3.333-3.333h56c1.841,0,3.333,1.493,3.333,3.333C-193.166,453.474-194.658,454.966-196.5,454.966z
	 M-246.168,469.185c0,1.84-1.492,3.332-3.332,3.332s-3.332-1.492-3.332-3.332c0-1.84,1.492-3.332,3.332-3.332
	S-246.168,467.345-246.168,469.185z M-246.168,484.243c0,1.84-1.492,3.332-3.332,3.332s-3.332-1.492-3.332-3.332
	c0-1.84,1.492-3.332,3.332-3.332S-246.168,482.403-246.168,484.243z M-246.168,499.244c0,1.84-1.492,3.332-3.332,3.332
	s-3.332-1.492-3.332-3.332c0-1.84,1.492-3.332,3.332-3.332S-246.168,497.403-246.168,499.244z"/>
</svg>
