<?xml version="1.0" encoding="utf-8"?>
<!-- Generator: Adobe Illustrator 15.1.0, SVG Export Plug-In . SVG Version: 6.00 Build 0)  -->
<!DOCTYPE svg PUBLIC "-//W3C//DTD SVG 1.1//EN" "http://www.w3.org/Graphics/SVG/1.1/DTD/svg11.dtd">
<svg version="1.1" id="resume_v2" xmlns="http://www.w3.org/2000/svg" xmlns:xlink="http://www.w3.org/1999/xlink" x="0px" y="0px"
	 width="81px" height="81px" viewBox="0 0 81 81" enable-background="new 0 0 81 81" xml:space="preserve">
<path fill="#636466" stroke="none" d="M71.355,4.5H9.629C6.801,4.5,4.5,6.832,4.5,9.691v61.617c0,2.859,2.301,5.191,5.129,5.191h61.727
	c2.832,0,5.145-2.332,5.145-5.191V9.691C76.5,6.832,74.188,4.5,71.355,4.5z M16.54,64.62c0,1.381-1.119,2.5-2.5,2.5
	s-2.5-1.119-2.5-2.5v-38.5c0-1.381,1.119-2.5,2.5-2.5s2.5,1.119,2.5,2.5V64.62z M60.25,60.374h-31.5c-1.381,0-2.5-1.119-2.5-2.5
	s1.119-2.5,2.5-2.5h31.5c1.381,0,2.5,1.119,2.5,2.5S61.631,60.374,60.25,60.374z M60.25,46.874h-31.5c-1.381,0-2.5-1.119-2.5-2.5
	s1.119-2.5,2.5-2.5h31.5c1.381,0,2.5,1.119,2.5,2.5S61.631,46.874,60.25,46.874z M60.25,33.374h-31.5c-1.381,0-2.5-1.119-2.5-2.5
	s1.119-2.5,2.5-2.5h31.5c1.381,0,2.5,1.119,2.5,2.5S61.631,33.374,60.25,33.374z M67.5,16.72h-54c-1.381,0-2.5-1.119-2.5-2.5
	s1.119-2.5,2.5-2.5h54c1.381,0,2.5,1.119,2.5,2.5S68.881,16.72,67.5,16.72z"/>
</svg>
