<?xml version="1.0" encoding="utf-8"?>
<!-- Generator: Adobe Illustrator 15.1.0, SVG Export Plug-In . SVG Version: 6.00 Build 0)  -->
<!DOCTYPE svg PUBLIC "-//W3C//DTD SVG 1.1//EN" "http://www.w3.org/Graphics/SVG/1.1/DTD/svg11.dtd">
<svg version="1.1" id="resume" xmlns="http://www.w3.org/2000/svg" xmlns:xlink="http://www.w3.org/1999/xlink" x="0px" y="0px"
	 width="81px" height="81px" viewBox="0 0 81 81" enable-background="new 0 0 81 81" xml:space="preserve">
<path fill="#636466" stroke="none" stroke-miterlimit="10" d="M71.355,4.5H9.629C6.801,4.5,4.5,6.832,4.5,9.691v61.617
	c0,2.859,2.301,5.191,5.129,5.191h61.727c2.832,0,5.145-2.332,5.145-5.191V9.691C76.5,6.832,74.188,4.5,71.355,4.5z M25.9,68.4
	c0,1.381-1.119,2.5-2.5,2.5s-2.5-1.119-2.5-2.5V27.9c0-1.381,1.119-2.5,2.5-2.5s2.5,1.119,2.5,2.5V68.4z M65.25,65.5h-31.5
	c-1.381,0-2.5-1.119-2.5-2.5s1.119-2.5,2.5-2.5h31.5c1.381,0,2.5,1.119,2.5,2.5S66.631,65.5,65.25,65.5z M65.25,52h-31.5
	c-1.381,0-2.5-1.119-2.5-2.5s1.119-2.5,2.5-2.5h31.5c1.381,0,2.5,1.119,2.5,2.5S66.631,52,65.25,52z M65.25,38.5h-31.5
	c-1.381,0-2.5-1.119-2.5-2.5s1.119-2.5,2.5-2.5h31.5c1.381,0,2.5,1.119,2.5,2.5S66.631,38.5,65.25,38.5z M67.5,20.5h-54
	c-1.381,0-2.5-1.119-2.5-2.5s1.119-2.5,2.5-2.5h54c1.381,0,2.5,1.119,2.5,2.5S68.881,20.5,67.5,20.5z"/>
</svg>
