<?xml version="1.0" encoding="utf-8"?>
<!-- Generator: Adobe Illustrator 15.1.0, SVG Export Plug-In . SVG Version: 6.00 Build 0)  -->
<!DOCTYPE svg PUBLIC "-//W3C//DTD SVG 1.1//EN" "https://www.w3.org/Graphics/SVG/1.1/DTD/svg11.dtd">
<svg version="1.1" id="LinkedIn" xmlns="https://www.w3.org/2000/svg" xmlns:xlink="https://www.w3.org/1999/xlink" x="0px" y="0px"
	 width="81px" height="81px" viewBox="13.5 0 81 81" enable-background="new 13.5 0 81 81" xml:space="preserve">
<path fill="#636466" stroke="none" d="M84.855,4.5H23.129C20.301,4.5,18,6.832,18,9.691v61.617c0,2.859,2.301,5.191,5.129,5.191h61.727
	c2.832,0,5.145-2.332,5.145-5.191V9.691C90,6.832,87.688,4.5,84.855,4.5z M39.759,66.215H29.087v-34.36h10.688v34.36H39.759
	L39.759,66.215z M34.423,27.16c-3.422,0-6.188-2.777-6.188-6.188c0-3.406,2.766-6.188,6.188-6.188c3.41,0,6.188,2.781,6.188,6.188
	C40.61,24.398,37.849,27.16,34.423,27.16z M79.762,66.215H69.09V49.5c0-3.984-0.086-9.109-5.551-9.109
	c-5.562,0-6.414,4.332-6.414,8.82v17.004H46.458v-34.36h10.234v4.695h0.145c1.43-2.703,4.918-5.547,10.109-5.547
	c10.797,0,12.809,7.121,12.809,16.375L79.762,66.215L79.762,66.215z"/>
</svg>
