<?xml version="1.0" encoding="utf-8"?>
<!-- Generator: Adobe Illustrator 15.1.0, SVG Export Plug-In . SVG Version: 6.00 Build 0)  -->
<!DOCTYPE svg PUBLIC "-//W3C//DTD SVG 1.1//EN" "http://www.w3.org/Graphics/SVG/1.1/DTD/svg11.dtd">
<svg version="1.1" id="Resume" xmlns="http://www.w3.org/2000/svg" xmlns:xlink="http://www.w3.org/1999/xlink" x="0px" y="0px"
	 width="81px" height="81px" viewBox="0 0 81 81" enable-background="new 0 0 81 81" xml:space="preserve">
<path fill="#636466" stroke="none" d="M71.355,4.5H9.629C6.801,4.5,4.5,6.832,4.5,9.691v61.617c0,2.859,2.301,5.191,5.129,5.191h61.727
	c2.832,0,5.145-2.332,5.145-5.191V9.691C76.5,6.832,74.188,4.5,71.355,4.5z M19.04,65.27c0,1.657-1.343,3-3,3s-3-1.343-3-3V32.65
	c0-1.657,1.343-3,3-3s3,1.343,3,3V65.27z M61.25,63.069h-31.5c-1.657,0-3-1.343-3-3s1.343-3,3-3h31.5c1.657,0,3,1.343,3,3
	S62.907,63.069,61.25,63.069z M61.25,49.569h-31.5c-1.657,0-3-1.343-3-3s1.343-3,3-3h31.5c1.657,0,3,1.343,3,3
	S62.907,49.569,61.25,49.569z M61.25,36.069h-31.5c-1.657,0-3-1.343-3-3s1.343-3,3-3h31.5c1.657,0,3,1.343,3,3
	S62.907,36.069,61.25,36.069z M65.7,20.22H15.3c-1.657,0-3-1.343-3-3s1.343-3,3-3h50.4c1.657,0,3,1.343,3,3S67.357,20.22,65.7,20.22
	z"/>
</svg>
