<?xml version="1.0" encoding="utf-8"?>
<!-- Generator: Adobe Illustrator 15.1.0, SVG Export Plug-In . SVG Version: 6.00 Build 0)  -->
<!DOCTYPE svg PUBLIC "-//W3C//DTD SVG 1.1//EN" "http://www.w3.org/Graphics/SVG/1.1/DTD/svg11.dtd">
<svg version="1.1" id="Lines:_1-stroke" xmlns="http://www.w3.org/2000/svg" xmlns:xlink="http://www.w3.org/1999/xlink" x="0px"
	 y="0px" width="81px" height="81px" viewBox="13.5 0 81 81" enable-background="new 13.5 0 81 81" xml:space="preserve">
<path fill="#636466" stroke="none" stroke-width="0.5" stroke-linecap="round" stroke-linejoin="round" stroke-miterlimit="10" d="
	M42.082,61.026c0,0.289-0.334,0.521-0.754,0.521c-0.479,0.041-0.812-0.188-0.812-0.521c0-0.293,0.334-0.527,0.754-0.527
	C41.707,60.46,42.082,60.692,42.082,61.026z M37.568,60.372c-0.104,0.291,0.188,0.623,0.623,0.707c0.379,0.146,0.813,0,0.899-0.289
	c0.087-0.293-0.188-0.625-0.623-0.756C38.089,59.937,37.667,60.083,37.568,60.372L37.568,60.372z M43.984,60.126
	c-0.422,0.102-0.711,0.375-0.668,0.707c0.043,0.293,0.42,0.479,0.854,0.377c0.42-0.103,0.711-0.377,0.666-0.668
	C44.796,60.271,44.404,60.083,43.984,60.126z M53.535,4.501C33.402,4.501,18,19.787,18,39.919c0,16.097,10.133,29.875,24.604,34.72
	c1.856,0.334,2.514-0.812,2.514-1.756c0-0.9-0.045-5.867-0.045-8.914c0,0-10.162,2.178-12.295-4.324c0,0-1.652-4.225-4.035-5.312
	c0,0-3.324-2.28,0.23-2.237c0,0,3.614,0.291,5.604,3.746c3.18,5.604,8.506,3.991,10.584,3.036c0.334-2.321,1.277-3.934,2.322-4.893
	c-8.116-0.898-16.304-2.076-16.304-16.038c0-3.992,1.104-5.996,3.426-8.551c-0.377-0.945-1.611-4.834,0.379-9.856
	C38.018,18.596,45,23.458,45,23.458c2.904-0.812,6.023-1.234,9.115-1.234s6.213,0.422,9.119,1.234c0,0,6.982-4.875,10.016-3.918
	c1.988,5.037,0.756,8.91,0.375,9.854c2.322,2.57,3.744,4.572,3.744,8.552c0,14.007-8.547,15.124-16.664,16.038
	c1.334,1.146,2.467,3.324,2.467,6.736c0,4.891-0.041,10.942-0.041,12.133c0,0.945,0.668,2.092,2.513,1.758
	C80.16,69.794,90,56.014,90,39.916C90,19.788,73.67,4.501,53.535,4.501z M32.109,54.565c-0.188,0.145-0.146,0.479,0.102,0.754
	c0.234,0.232,0.566,0.334,0.754,0.146c0.189-0.146,0.148-0.479-0.102-0.755C32.632,54.478,32.296,54.378,32.109,54.565z
	 M30.542,53.392c-0.102,0.188,0.043,0.42,0.332,0.566c0.234,0.145,0.523,0.102,0.625-0.103c0.103-0.188-0.043-0.422-0.334-0.565
	C30.874,53.2,30.645,53.245,30.542,53.392z M35.246,58.558c-0.231,0.189-0.146,0.623,0.188,0.9c0.334,0.334,0.754,0.375,0.944,0.145
	c0.189-0.191,0.103-0.625-0.188-0.898C35.871,58.37,35.434,58.325,35.246,58.558z M33.589,56.425c-0.229,0.145-0.229,0.525,0,0.859
	c0.232,0.334,0.625,0.475,0.814,0.334c0.232-0.193,0.232-0.566,0-0.9C34.199,56.38,33.822,56.235,33.589,56.425L33.589,56.425z"/>
</svg>
