<?xml version="1.0" encoding="utf-8"?>
<!-- Generator: Adobe Illustrator 15.1.0, SVG Export Plug-In . SVG Version: 6.00 Build 0)  -->
<!DOCTYPE svg PUBLIC "-//W3C//DTD SVG 1.1//EN" "http://www.w3.org/Graphics/SVG/1.1/DTD/svg11.dtd">
<svg version="1.1" id="GitHub" xmlns="http://www.w3.org/2000/svg" xmlns:xlink="http://www.w3.org/1999/xlink" x="0px" y="0px"
	 width="81px" height="81px" viewBox="0 0 81 81" enable-background="new 0 0 81 81" xml:space="preserve">
<path fill="#fff" stroke="none" d="M28.582,61.025c0,0.289-0.334,0.521-0.754,0.521c-0.479,0.041-0.812-0.189-0.812-0.521c0-0.293,0.334-0.527,0.754-0.527
	C28.207,60.459,28.582,60.691,28.582,61.025z M24.068,60.371c-0.104,0.291,0.188,0.623,0.623,0.707c0.379,0.145,0.813,0,0.899-0.289
	c0.087-0.293-0.188-0.625-0.623-0.756C24.589,59.936,24.167,60.082,24.068,60.371L24.068,60.371z M30.484,60.125
	c-0.422,0.102-0.711,0.375-0.668,0.707c0.043,0.293,0.42,0.479,0.854,0.377c0.42-0.104,0.712-0.377,0.667-0.668
	C31.296,60.27,30.904,60.082,30.484,60.125z M40.035,4.5C19.902,4.5,4.5,19.785,4.5,39.917c0,16.098,10.133,29.875,24.604,34.721
	c1.856,0.334,2.515-0.812,2.515-1.756c0-0.9-0.045-5.867-0.045-8.914c0,0-10.163,2.178-12.296-4.324c0,0-1.652-4.225-4.035-5.312
	c0,0-3.324-2.281,0.23-2.238c0,0,3.614,0.291,5.604,3.746c3.18,5.605,8.506,3.992,10.585,3.037c0.334-2.322,1.276-3.934,2.321-4.893
	c-8.116-0.898-16.304-2.076-16.304-16.038c0-3.993,1.104-5.997,3.426-8.552c-0.377-0.945-1.611-4.834,0.379-9.856
	c3.033-0.945,10.016,3.918,10.016,3.918c2.904-0.812,6.023-1.234,9.115-1.234s6.213,0.422,9.119,1.234c0,0,6.982-4.875,10.016-3.918
	c1.988,5.037,0.756,8.91,0.375,9.855c2.322,2.57,3.744,4.572,3.744,8.551c0,14.008-8.547,15.124-16.664,16.038
	c1.334,1.146,2.467,3.324,2.467,6.736c0,4.891-0.041,10.943-0.041,12.133c0,0.945,0.668,2.092,2.513,1.758
	C66.66,69.793,76.5,56.012,76.5,39.914C76.5,19.786,60.17,4.5,40.035,4.5z M18.609,54.564c-0.188,0.145-0.146,0.479,0.102,0.754
	c0.234,0.232,0.566,0.334,0.754,0.145c0.189-0.145,0.148-0.479-0.102-0.754C19.132,54.477,18.796,54.377,18.609,54.564z
	 M17.042,53.391c-0.102,0.188,0.043,0.42,0.332,0.566c0.234,0.145,0.523,0.102,0.625-0.104c0.103-0.188-0.043-0.422-0.334-0.564
	C17.374,53.199,17.145,53.244,17.042,53.391z M21.746,58.557c-0.231,0.189-0.146,0.623,0.188,0.9
	c0.334,0.334,0.754,0.375,0.944,0.145c0.189-0.191,0.103-0.625-0.188-0.898C22.371,58.369,21.934,58.324,21.746,58.557z
	 M20.089,56.424c-0.229,0.145-0.229,0.525,0,0.859c0.232,0.334,0.625,0.475,0.814,0.334c0.232-0.193,0.232-0.566,0-0.9
	C20.699,56.379,20.322,56.234,20.089,56.424L20.089,56.424z"/>
</svg>
