<?xml version="1.0" encoding="utf-8"?>
<!-- Generator: Adobe Illustrator 15.1.0, SVG Export Plug-In . SVG Version: 6.00 Build 0)  -->
<!DOCTYPE svg PUBLIC "-//W3C//DTD SVG 1.1//EN" "http://www.w3.org/Graphics/SVG/1.1/DTD/svg11.dtd">
<svg version="1.1" id="Lines:_1-stroke" xmlns="http://www.w3.org/2000/svg" xmlns:xlink="http://www.w3.org/1999/xlink" x="0px"
	 y="0px" width="81px" height="81px" viewBox="0 0 81 81" enable-background="new 0 0 81 81" xml:space="preserve">
<path fill="#636466" stroke="none" stroke-linecap="round" stroke-linejoin="round" stroke-miterlimit="10" d="M75.141,27.98
	c0.547-0.583,1.359-0.037,1.359,0.88v38.641c0,4.968-3.023,8.998-6.751,8.998H11.253c-3.73,0-6.753-4.03-6.753-8.998V28.876
	c0-0.938,0.8-1.458,1.363-0.88C9.016,31.261,40.499,59.74,40.499,59.74S71.984,31.245,75.141,27.98z M40.502,52.499
	c0,0,30.402-27.388,34.708-31.892c0.812-0.843,1.29-2.15,1.29-3.541v-3.562c0-4.973-3.023-9.003-6.751-9.003H11.253
	c-3.73,0-6.753,4.031-6.753,9.003v3.562c0,1.385,0.48,2.677,1.293,3.541C10.097,25.086,40.502,52.499,40.502,52.499z"/>
</svg>
