<?xml version="1.0" encoding="utf-8"?>
<!-- Generator: Adobe Illustrator 15.1.0, SVG Export Plug-In . SVG Version: 6.00 Build 0)  -->
<!DOCTYPE svg PUBLIC "-//W3C//DTD SVG 1.1//EN" "https://www.w3.org/Graphics/SVG/1.1/DTD/svg11.dtd">
<svg version="1.1" id="SVG" xmlns="https://www.w3.org/2000/svg" xmlns:xlink="https://www.w3.org/1999/xlink" x="0px" y="0px"
	 width="162px" height="162px" viewBox="0 0 162 162" enable-background="new 0 0 162 162" xml:space="preserve">
<g id="Tree">
	<path id="Disc" fill="none" stroke="#000000" stroke-miterlimit="10" d="M157.5,81.002c0,42.246-34.25,76.497-76.5,76.497
		S4.5,123.248,4.5,81.002C4.5,38.751,38.75,4.501,81,4.501S157.5,38.751,157.5,81.002z"/>
	<g id="AT">
		<g>
			<polygon fill="none" stroke="#000000" stroke-width="4" stroke-linecap="round" stroke-miterlimit="10" points="122.568,82.368
				81,10.368 39.432,82.368 			"/>

				<line fill="none" stroke="#000000" stroke-width="4" stroke-linecap="round" stroke-linejoin="round" stroke-miterlimit="10" x1="60.26" y1="46.368" x2="101.65" y2="46.368"/>

				<line fill="none" stroke="#000000" stroke-width="4" stroke-linecap="square" stroke-linejoin="round" stroke-miterlimit="10" x1="81" y1="82.368" x2="81" y2="154.368"/>
		</g>
	</g>

		<path id="Circle" fill="none" stroke="#000000" stroke-width="4" stroke-linecap="round" stroke-linejoin="round" stroke-miterlimit="10" d="
		M157.5,81.002c0,42.246-34.25,76.497-76.5,76.497S4.5,123.248,4.5,81.002C4.5,38.751,38.75,4.501,81,4.501
		S157.5,38.751,157.5,81.002z"/>
</g>
</svg>
