<?xml version="1.0" encoding="utf-8"?>
<!-- Generator: Adobe Illustrator 26.3.1, SVG Export Plug-In . SVG Version: 6.00 Build 0)  -->
<svg version="1.1" id="Icons" xmlns="http://www.w3.org/2000/svg" xmlns:xlink="http://www.w3.org/1999/xlink" x="0px" y="0px"
	 width="80px" height="80px" viewBox="-264.5 437.5 80 80" enable-background="new -264.5 437.5 80 80" xml:space="preserve">
<g id="Email" display="none">
	<path display="inline" fill="#FFFFFF" d="M-190.216,437.5h-68.585c-3.142,0-5.699,2.591-5.699,5.768v9.519l40,40.001l40-40.001
		v-9.518C-184.5,440.091-187.069,437.5-190.216,437.5z"/>
	<path display="inline" fill="#FFFFFF" d="M-224.5,500.834c-0.853,0-1.706-0.326-2.357-0.977l-37.643-37.643v49.518
		c0,3.177,2.557,5.768,5.699,5.768h68.585c3.147,0,5.716-2.591,5.716-5.768v-49.519l-37.643,37.644
		C-222.794,500.508-223.647,500.834-224.5,500.834z"/>
</g>
<path id="GitHub" fill="#FFFFFF" d="M-237.742,501.919c0,0.329-0.371,0.594-0.838,0.594c-0.532,0.047-0.902-0.216-0.902-0.594
	c0-0.334,0.371-0.601,0.838-0.601C-238.159,501.273-237.742,501.538-237.742,501.919z M-242.757,501.173
	c-0.116,0.332,0.209,0.71,0.692,0.806c0.421,0.165,0.904,0,0.999-0.329c0.097-0.334-0.208-0.712-0.692-0.861
	C-242.179,500.676-242.648,500.843-242.757,501.173L-242.757,501.173z M-235.628,500.892c-0.469,0.116-0.79,0.427-0.742,0.806
	c0.048,0.334,0.467,0.545,0.949,0.43c0.467-0.118,0.791-0.43,0.741-0.761C-234.727,501.057-235.162,500.843-235.628,500.892z
	 M-225.016,437.5c-22.37,0-39.484,17.419-39.484,40.363c0,18.346,11.259,34.047,27.338,39.569c2.063,0.381,2.794-0.926,2.794-2.001
	c0-1.026-0.05-6.686-0.05-10.159c0,0-11.292,2.482-13.662-4.928c0,0-1.836-4.814-4.483-6.054c0,0-3.694-2.6,0.256-2.551
	c0,0,4.016,0.332,6.226,4.269c3.533,6.388,9.451,4.55,11.761,3.461c0.371-2.646,1.418-4.483,2.579-5.576
	c-9.018-1.024-18.115-2.366-18.115-18.277c0-4.551,1.227-6.834,3.806-9.747c-0.419-1.076-1.79-5.509,0.421-11.232
	c3.37-1.077,11.128,4.465,11.128,4.465c3.227-0.925,6.693-1.406,10.128-1.406c3.435,0,6.903,0.481,10.132,1.406
	c0,0,7.758-5.556,11.128-4.465c2.209,5.741,0.84,10.154,0.417,11.232c2.58,2.929,4.16,5.211,4.16,9.745
	c0,15.964-9.496,17.235-18.516,18.277c1.482,1.307,2.741,3.788,2.741,7.677c0,5.573-0.046,12.471-0.046,13.827
	c0,1.077,0.742,2.384,2.792,2.003c16.13-5.489,27.063-21.194,27.063-39.54C-184.5,454.92-202.645,437.5-225.016,437.5z
	 M-248.823,494.555c-0.209,0.165-0.162,0.545,0.113,0.859c0.26,0.265,0.629,0.381,0.838,0.165c0.211-0.165,0.165-0.545-0.113-0.859
	C-248.242,494.455-248.616,494.342-248.823,494.555z M-250.564,493.218c-0.113,0.214,0.048,0.479,0.369,0.645
	c0.26,0.165,0.582,0.116,0.694-0.118c0.114-0.214-0.048-0.481-0.371-0.643C-250.196,493-250.451,493.051-250.564,493.218z
	 M-245.338,499.105c-0.257,0.216-0.162,0.71,0.209,1.026c0.371,0.381,0.838,0.427,1.049,0.165c0.211-0.218,0.114-0.712-0.209-1.024
	C-244.643,498.891-245.129,498.84-245.338,499.105z M-247.179,496.674c-0.255,0.165-0.255,0.599,0,0.979
	c0.258,0.381,0.694,0.541,0.905,0.381c0.258-0.22,0.258-0.646,0-1.026C-246.501,496.623-246.92,496.458-247.179,496.674
	L-247.179,496.674z"/>
<path id="LinkedIn" display="none" fill="#FFFFFF" d="M-190.216,437.5h-68.585c-3.142,0-5.699,2.591-5.699,5.768v68.464
	c0,3.177,2.556,5.768,5.699,5.768h68.585c3.147,0,5.716-2.591,5.716-5.768v-68.464C-184.5,440.091-187.069,437.5-190.216,437.5z
	 M-240.324,506.072h-11.858v-38.177h11.876v38.177H-240.324L-240.324,506.072z M-246.252,462.678c-3.802,0-6.876-3.085-6.876-6.876
	c0-3.784,3.074-6.876,6.876-6.876c3.788,0,6.876,3.09,6.876,6.876C-239.378,459.609-242.446,462.678-246.252,462.678z
	 M-195.876,506.072h-11.858V487.5c0-4.427-0.095-10.122-6.167-10.122c-6.181,0-7.127,4.813-7.127,9.8v18.893h-11.853v-38.177h11.372
	v5.217h0.161c1.589-3.003,5.464-6.163,11.233-6.163c11.997,0,14.232,7.912,14.232,18.195L-195.876,506.072L-195.876,506.072z"/>
<path id="Resume" display="none" fill="#FFFFFF" d="M-190.216,437.5h-68.585c-3.142,0-5.699,2.591-5.699,5.768v68.464
	c0,3.177,2.557,5.768,5.699,5.768h68.585c3.147,0,5.716-2.591,5.716-5.768v-68.464C-184.5,440.091-187.069,437.5-190.216,437.5z
	 M-201.444,502.577h-35c-1.841,0-3.333-1.492-3.333-3.333c0-1.841,1.493-3.333,3.333-3.333h35c1.841,0,3.333,1.492,3.333,3.333
	C-198.111,501.085-199.603,502.577-201.444,502.577z M-201.444,487.577h-35c-1.841,0-3.333-1.492-3.333-3.333
	c0-1.841,1.493-3.333,3.333-3.333h35c1.841,0,3.333,1.492,3.333,3.333C-198.111,486.085-199.603,487.577-201.444,487.577z
	 M-201.444,472.577h-35c-1.841,0-3.333-1.492-3.333-3.333c0-1.841,1.493-3.333,3.333-3.333h35c1.841,0,3.333,1.493,3.333,3.333
	C-198.111,471.084-199.603,472.577-201.444,472.577z M-196.5,454.966h-56c-1.841,0-3.333-1.492-3.333-3.333
	c0-1.841,1.493-3.333,3.333-3.333h56c1.841,0,3.333,1.493,3.333,3.333C-193.166,453.474-194.658,454.966-196.5,454.966z
	 M-246.168,469.185c0,1.84-1.492,3.332-3.332,3.332s-3.332-1.492-3.332-3.332c0-1.84,1.492-3.332,3.332-3.332
	S-246.168,467.345-246.168,469.185z M-246.168,484.243c0,1.84-1.492,3.332-3.332,3.332s-3.332-1.492-3.332-3.332
	c0-1.84,1.492-3.332,3.332-3.332S-246.168,482.403-246.168,484.243z M-246.168,499.244c0,1.84-1.492,3.332-3.332,3.332
	s-3.332-1.492-3.332-3.332c0-1.84,1.492-3.332,3.332-3.332S-246.168,497.403-246.168,499.244z"/>
</svg>
