<?xml version="1.0" encoding="utf-8"?>
<!-- Generator: Adobe Illustrator 15.1.0, SVG Export Plug-In . SVG Version: 6.00 Build 0)  -->
<!DOCTYPE svg PUBLIC "-//W3C//DTD SVG 1.1//EN" "http://www.w3.org/Graphics/SVG/1.1/DTD/svg11.dtd">
<svg version="1.1" id="Layer_1" xmlns="http://www.w3.org/2000/svg" xmlns:xlink="http://www.w3.org/1999/xlink" x="0px" y="0px"
	 width="81px" height="81px" viewBox="-21.562 -22 81 81" enable-background="new -21.562 -22 81 81" xml:space="preserve">
<path d="M7.52,40.426c0,0.289-0.334,0.521-0.754,0.521c-0.479,0.041-0.812-0.188-0.812-0.521c0-0.293,0.334-0.527,0.754-0.527
	C7.145,39.859,7.52,40.092,7.52,40.426z M3.006,39.771c-0.104,0.291,0.189,0.623,0.623,0.707c0.379,0.146,0.814,0,0.9-0.289
	c0.086-0.293-0.188-0.625-0.623-0.756C3.527,39.336,3.105,39.482,3.006,39.771L3.006,39.771z M9.422,39.525
	C9,39.627,8.711,39.9,8.754,40.232c0.043,0.293,0.42,0.479,0.855,0.377c0.42-0.102,0.711-0.377,0.666-0.668
	C10.234,39.67,9.842,39.482,9.422,39.525z M18.973-16.099c-20.133,0-35.535,15.285-35.535,35.418
	c0,16.097,10.133,29.874,24.604,34.72c1.857,0.334,2.514-0.812,2.514-1.756c0-0.9-0.045-5.867-0.045-8.914
	c0,0-10.162,2.178-12.295-4.324c0,0-1.652-4.225-4.035-5.312c0,0-3.324-2.281,0.23-2.238c0,0,3.615,0.291,5.604,3.746
	c3.18,5.605,8.506,3.992,10.584,3.037c0.334-2.322,1.277-3.934,2.322-4.893C4.805,32.486-3.383,31.309-3.383,17.347
	c0-3.992,1.105-5.996,3.426-8.551C-0.334,7.851-1.568,3.962,0.422-1.06c3.033-0.945,10.016,3.918,10.016,3.918
	c2.904-0.812,6.023-1.234,9.115-1.234s6.213,0.422,9.119,1.234c0,0,6.982-4.875,10.016-3.918c1.988,5.037,0.756,8.91,0.375,9.855
	c2.322,2.57,3.744,4.572,3.744,8.551c0,14.007-8.547,15.124-16.664,16.038c1.334,1.146,2.467,3.324,2.467,6.736
	c0,4.891-0.041,10.943-0.041,12.133c0,0.945,0.668,2.092,2.512,1.758c14.516-4.818,24.357-18.598,24.357-34.696
	C55.438-0.813,39.107-16.099,18.973-16.099z M-2.453,33.965c-0.188,0.145-0.145,0.479,0.102,0.754
	c0.234,0.232,0.566,0.334,0.754,0.145c0.189-0.145,0.148-0.479-0.102-0.754C-1.93,33.877-2.266,33.777-2.453,33.965z M-4.02,32.791
	c-0.102,0.188,0.043,0.42,0.332,0.566c0.234,0.145,0.523,0.102,0.625-0.102c0.102-0.188-0.043-0.422-0.334-0.566
	C-3.688,32.6-3.918,32.645-4.02,32.791z M0.684,37.957c-0.232,0.189-0.146,0.623,0.188,0.9c0.334,0.334,0.754,0.375,0.945,0.145
	c0.189-0.191,0.102-0.625-0.189-0.898C1.309,37.77,0.871,37.725,0.684,37.957z M-0.973,35.824c-0.23,0.145-0.23,0.525,0,0.859
	c0.232,0.334,0.625,0.475,0.814,0.334c0.232-0.193,0.232-0.566,0-0.9C-0.363,35.779-0.74,35.635-0.973,35.824L-0.973,35.824z"/>
</svg>
