<?xml version="1.0" encoding="utf-8"?>
<!-- Generator: Adobe Illustrator 15.1.0, SVG Export Plug-In . SVG Version: 6.00 Build 0)  -->
<!DOCTYPE svg PUBLIC "-//W3C//DTD SVG 1.1//EN" "http://www.w3.org/Graphics/SVG/1.1/DTD/svg11.dtd">
<svg version="1.1" id="Layer_1" xmlns="http://www.w3.org/2000/svg" xmlns:xlink="http://www.w3.org/1999/xlink" x="0px" y="0px"
	 width="612px" height="792px" viewBox="0 0 612 792" enable-background="new 0 0 612 792" xml:space="preserve">
<path d="M314.659,394.59c0.137-0.109,0.341-0.007,0.341,0.165v6.307c0,0.932-0.756,1.688-1.688,1.688h-14.625
	c-0.932,0-1.688-0.756-1.688-1.688v-6.304c0-0.176,0.2-0.274,0.341-0.165c0.788,0.612,1.832,1.389,5.418,3.994
	c0.742,0.541,1.993,1.68,3.241,1.673c1.255,0.011,2.531-1.153,3.245-1.673C312.831,395.982,313.871,395.202,314.659,394.59z
	 M306,398.25c0.815,0.014,1.99-1.026,2.58-1.455c4.666-3.386,5.021-3.681,6.097-4.525c0.204-0.158,0.323-0.404,0.323-0.665v-0.668
	c0-0.932-0.756-1.688-1.688-1.688h-14.625c-0.932,0-1.688,0.756-1.688,1.688v0.668c0,0.26,0.12,0.503,0.323,0.665
	c1.076,0.84,1.431,1.139,6.096,4.525C304.01,397.224,305.185,398.264,306,398.25L306,398.25z"/>
</svg>
