<?xml version="1.0" encoding="utf-8"?>
<!-- Generator: Adobe Illustrator 15.1.0, SVG Export Plug-In . SVG Version: 6.00 Build 0)  -->
<!DOCTYPE svg PUBLIC "-//W3C//DTD SVG 1.1//EN" "http://www.w3.org/Graphics/SVG/1.1/DTD/svg11.dtd">
<svg version="1.1" id="Layer_1" xmlns="http://www.w3.org/2000/svg" xmlns:xlink="http://www.w3.org/1999/xlink" x="0px" y="0px"
	 width="108px" height="81px" viewBox="-44.594 -33.375 108 81" enable-background="new -44.594 -33.375 108 81"
	 xml:space="preserve">
<path d="M55.588-0.395c0.729-0.583,1.812-0.037,1.812,0.88v33.641c0,4.968-4.031,8.998-9,8.998h-77.986
	c-4.973,0-9.003-4.03-9.003-8.998V0.501c0-0.938,1.067-1.458,1.817-0.88c4.203,3.265,9.77,7.41,28.892,21.299
	c3.958,2.885,10.629,8.957,17.284,8.921c6.69,0.067,13.5-6.141,17.302-8.921C45.839,7.031,51.38,2.87,55.588-0.395z M9.409,19.124
	c4.352,0.073,10.611-5.474,13.756-7.76C48.047-6.691,49.942-8.264,55.681-12.768c1.083-0.843,1.719-2.15,1.719-3.541v-3.562
	c0-4.973-4.031-9.003-9-9.003h-77.986c-4.973,0-9.003,4.031-9.003,9.003v3.562c0,1.385,0.641,2.677,1.724,3.541
	c5.738,4.479,7.629,6.077,32.506,24.132C-1.204,13.65,5.066,19.197,9.409,19.124L9.409,19.124z"/>
</svg>
