<?xml version="1.0" encoding="utf-8"?>
<!-- Generator: Adobe Illustrator 15.1.0, SVG Export Plug-In . SVG Version: 6.00 Build 0)  -->
<!DOCTYPE svg PUBLIC "-//W3C//DTD SVG 1.1//EN" "http://www.w3.org/Graphics/SVG/1.1/DTD/svg11.dtd">
<svg version="1.1" id="Lines:_1-stroke" xmlns="http://www.w3.org/2000/svg" xmlns:xlink="http://www.w3.org/1999/xlink" x="0px"
	 y="0px" width="81px" height="81px" viewBox="13.5 0 81 81" enable-background="new 13.5 0 81 81" xml:space="preserve">
<path fill="#636466" stroke="none" stroke-linecap="round" stroke-linejoin="round" stroke-miterlimit="10" d="M88.64,30.98
	c0.547-0.583,1.36-0.037,1.36,0.88v35.641c0,4.968-3.024,8.998-6.751,8.998H24.753c-3.73,0-6.753-4.03-6.753-8.998V31.876
	c0-0.938,0.8-1.458,1.363-0.88c3.153,3.265,34.636,31.744,34.636,31.744S85.484,34.245,88.64,30.98z M54.002,52.499
	c0,0,30.403-27.388,34.708-31.892c0.812-0.843,1.29-2.15,1.29-3.541v-3.562c0-4.973-3.024-9.003-6.751-9.003H24.753
	c-3.73,0-6.753,4.031-6.753,9.003v3.562c0,1.385,0.48,2.677,1.293,3.541C23.597,25.086,54.002,52.499,54.002,52.499z"/>
</svg>
