<?xml version="1.0" encoding="utf-8"?>
<!-- Generator: Adobe Illustrator 15.1.0, SVG Export Plug-In . SVG Version: 6.00 Build 0)  -->
<!DOCTYPE svg PUBLIC "-//W3C//DTD SVG 1.1//EN" "http://www.w3.org/Graphics/SVG/1.1/DTD/svg11.dtd">
<svg version="1.1" id="Layer_1" xmlns="http://www.w3.org/2000/svg" xmlns:xlink="http://www.w3.org/1999/xlink" x="0px" y="0px"
	 width="612px" height="792px" viewBox="0 0 612 792" enable-background="new 0 0 612 792" xml:space="preserve">
<path d="M313.714,387h-15.432c-0.707,0-1.282,0.583-1.282,1.298v15.404c0,0.715,0.575,1.298,1.282,1.298h15.432
	c0.708,0,1.286-0.583,1.286-1.298v-15.404C315,387.583,314.422,387,313.714,387z M302.44,402.429h-2.668v-8.59h2.672v8.59H302.44z
	 M301.106,392.665c-0.856,0-1.547-0.695-1.547-1.547c0-0.852,0.691-1.547,1.547-1.547c0.852,0,1.547,0.695,1.547,1.547
	C302.653,391.974,301.962,392.665,301.106,392.665z M312.44,402.429h-2.668v-4.179c0-0.996-0.02-2.278-1.386-2.278
	c-1.391,0-1.604,1.085-1.604,2.206v4.251h-2.667v-8.59h2.559v1.173h0.036c0.357-0.675,1.229-1.386,2.527-1.386
	c2.7,0,3.202,1.78,3.202,4.094V402.429z"/>
</svg>
