<?xml version="1.0" encoding="utf-8"?>
<!-- Generator: Adobe Illustrator 15.1.0, SVG Export Plug-In . SVG Version: 6.00 Build 0)  -->
<!DOCTYPE svg PUBLIC "-//W3C//DTD SVG 1.1//EN" "http://www.w3.org/Graphics/SVG/1.1/DTD/svg11.dtd">
<svg version="1.1" id="Layer_1" xmlns="http://www.w3.org/2000/svg" xmlns:xlink="http://www.w3.org/1999/xlink" x="0px" y="0px"
	 width="612px" height="792px" viewBox="0 0 612 792" enable-background="new 0 0 612 792" xml:space="preserve">
<path d="M300.041,399.067c0,0.145-0.167,0.261-0.377,0.261c-0.239,0.021-0.406-0.094-0.406-0.261c0-0.146,0.167-0.262,0.377-0.262
	C299.853,398.784,300.041,398.9,300.041,399.067z M297.784,398.74c-0.051,0.146,0.095,0.312,0.312,0.355
	c0.189,0.073,0.407,0,0.45-0.145c0.043-0.146-0.094-0.312-0.312-0.378C298.045,398.522,297.834,398.596,297.784,398.74
	L297.784,398.74z M300.992,398.617c-0.211,0.051-0.356,0.188-0.334,0.355c0.021,0.146,0.21,0.239,0.428,0.188
	c0.21-0.051,0.355-0.188,0.333-0.334C301.398,398.689,301.202,398.596,300.992,398.617z M305.768,370.804
	c-10.067,0-17.768,7.643-17.768,17.709c0,8.05,5.066,14.938,12.302,17.361c0.929,0.167,1.256-0.406,1.256-0.878
	c0-0.45-0.022-2.933-0.022-4.457c0,0-5.081,1.089-6.147-2.162c0,0-0.827-2.112-2.018-2.657c0,0-1.662-1.14,0.116-1.118
	c0,0,1.807,0.145,2.801,1.873c1.59,2.801,4.253,1.996,5.292,1.517c0.167-1.161,0.639-1.967,1.161-2.446
	c-4.057-0.45-8.151-1.038-8.151-8.02c0-1.996,0.552-2.998,1.713-4.275c-0.189-0.472-0.806-2.417,0.189-4.928
	c1.517-0.472,5.008,1.959,5.008,1.959c1.452-0.406,3.012-0.617,4.558-0.617c1.546,0,3.106,0.211,4.558,0.617
	c0,0,3.491-2.438,5.008-1.959c0.994,2.519,0.378,4.456,0.188,4.928c1.162,1.285,1.873,2.286,1.873,4.275
	c0,7.004-4.275,7.563-8.332,8.02c0.667,0.573,1.233,1.662,1.233,3.368c0,2.445-0.021,5.472-0.021,6.067
	c0,0.472,0.334,1.045,1.256,0.878c7.258-2.409,12.179-9.297,12.179-17.347C324,378.447,315.835,370.804,305.768,370.804z
	 M295.055,395.837c-0.094,0.072-0.072,0.239,0.051,0.377c0.116,0.116,0.283,0.167,0.377,0.072c0.094-0.072,0.073-0.239-0.051-0.377
	C295.316,395.793,295.149,395.743,295.055,395.837z M294.271,395.25c-0.051,0.094,0.022,0.21,0.167,0.283
	c0.116,0.073,0.261,0.051,0.312-0.051c0.051-0.094-0.022-0.21-0.167-0.283C294.438,395.155,294.322,395.177,294.271,395.25z
	 M296.623,397.833c-0.116,0.095-0.073,0.312,0.094,0.45c0.167,0.167,0.377,0.188,0.472,0.072c0.095-0.094,0.051-0.312-0.094-0.449
	C296.935,397.739,296.717,397.717,296.623,397.833z M295.795,396.767c-0.116,0.072-0.116,0.261,0,0.428
	c0.116,0.167,0.312,0.239,0.407,0.167c0.116-0.095,0.116-0.283,0-0.45C296.1,396.744,295.911,396.672,295.795,396.767
	L295.795,396.767z"/>
</svg>
