<?xml version="1.0" encoding="utf-8"?>
<!-- Generator: Adobe Illustrator 15.1.0, SVG Export Plug-In . SVG Version: 6.00 Build 0)  -->
<!DOCTYPE svg PUBLIC "-//W3C//DTD SVG 1.1//EN" "http://www.w3.org/Graphics/SVG/1.1/DTD/svg11.dtd">
<svg version="1.1" id="Layer_1" xmlns="http://www.w3.org/2000/svg" xmlns:xlink="http://www.w3.org/1999/xlink" x="0px" y="0px"
	 width="81px" height="81px" viewBox="-31.031 -31.094 81 81" enable-background="new -31.031 -31.094 81 81" xml:space="preserve">
<path d="M40.324-26.594h-61.727c-2.828,0-5.129,2.332-5.129,5.191v61.617c0,2.859,2.301,5.191,5.129,5.191h61.727
	c2.832,0,5.145-2.332,5.145-5.191v-61.617C45.469-24.262,43.156-26.594,40.324-26.594z M-4.773,35.121h-10.672V0.761h10.688v34.359
	H-4.773z M-10.109-3.934c-3.422,0-6.188-2.777-6.188-6.188c0-3.406,2.766-6.188,6.188-6.188c3.41,0,6.188,2.781,6.188,6.188
	C-3.922-6.696-6.683-3.934-10.109-3.934z M35.231,35.121H24.559V18.406c0-3.984-0.086-9.109-5.551-9.109
	c-5.562,0-6.414,4.332-6.414,8.82v17.004H1.926V0.761H12.16v4.695h0.145c1.43-2.703,4.918-5.547,10.109-5.547
	c10.797,0,12.809,7.121,12.809,16.375L35.231,35.121L35.231,35.121z"/>
</svg>
