<?xml version="1.0" encoding="utf-8"?>
<!-- Generator: Adobe Illustrator 26.3.1, SVG Export Plug-In . SVG Version: 6.00 Build 0)  -->
<svg version="1.1" id="LinkedIn_white" xmlns="http://www.w3.org/2000/svg" xmlns:xlink="http://www.w3.org/1999/xlink" x="0px"
	 y="0px" viewBox="0 0 81 81" enable-background="new 0 0 81 81" xml:space="preserve">
<path fill="#FFFFFF" d="M71.355,4.501H9.629C6.801,4.501,4.5,6.832,4.5,9.691v61.617c0,2.859,2.301,5.191,5.129,5.191h61.727
	c2.832,0,5.145-2.332,5.145-5.191V9.691C76.5,6.832,74.187,4.501,71.355,4.501z M26.259,66.215H15.587V31.856h10.688v34.359H26.259
	L26.259,66.215z M20.923,27.16c-3.422,0-6.189-2.777-6.189-6.188c0-3.406,2.767-6.188,6.189-6.188c3.409,0,6.188,2.781,6.188,6.188
	C27.109,24.398,24.349,27.16,20.923,27.16z M66.262,66.215H55.59V49.5c0-3.984-0.086-9.109-5.551-9.109
	c-5.562,0-6.414,4.332-6.414,8.82v17.004H32.957V31.856h10.234v4.695h0.145c1.43-2.703,4.918-5.547,10.109-5.547
	c10.797,0,12.809,7.121,12.809,16.375L66.262,66.215L66.262,66.215z"/>
</svg>
